<svg viewBox="0 0 30 30" fill="none" xmlns="http://www.w3.org/2000/svg">
    <path class="arrow" fill-rule="evenodd" clip-rule="evenodd"
          d="M11 29.3334

          M14.2933 18.5868
          C14.4933 18.7868 14.7467 18.8801 15 18.8801
          C15.2533 18.8801 15.5067 18.7868 15.7067 18.5868
          L20.4133 13.8801
          C20.8 13.4934 20.8 12.8534 20.4133 12.4668
          C20.0267 12.0801 19.3867 12.0801 19 12.4668
          L15 16.4668
          L11 12.4668
          C10.6133 12.0801 9.97333 12.0801 9.58666 12.4668
          C9.2 12.8534 9.2 13.4934 9.58666 13.8801
          Z"
          fill="currentColor"/>
    <path fill-rule="evenodd" clip-rule="evenodd"
            d="
          M11 29.3334

          H19
          C26.24 29.3334 29.3333 26.2401 29.3333 19.0001
          V11.0001
          C29.3333 3.76008 26.24 0.666748 19 0.666748
          H11
          C3.76001 0.666748 0.666672 3.76008 0.666672 11.0001
          V19.0001
          C0.666672 26.2401 3.76001 29.3334 11 29.3334
          Z
          M2.66667 11.0001
          C2.66667 4.85341 4.85334 2.66675 11 2.66675
          H19
          C25.1467 2.66675 27.3333 4.85341 27.3333 11.0001
          V19.0001
          C27.3333 25.1467 25.1467 27.3334 19 27.3334
          H11
          C4.85334 27.3334 2.66667 25.1467 2.66667 19.0001
          V11.0001
          Z"
          fill="currentColor"/>
</svg>
